<svg width="610" height="559" viewBox="0 0 610 559" fill="none" xmlns="http://www.w3.org/2000/svg">
<g filter="url(#filter0_d_2327_3154)">
<path d="M382.302 15.918L424.208 56.3535L466.326 284.295H71.2539L382.302 15.918Z" fill="#FFCF2D"/>
<path d="M424.568 56.036L382.535 15.4735L389.565 8.16972C399.92 -2.58485 418.575 -1.35696 429.333 8.9742C440.09 19.3265 441.974 37.9776 431.62 48.7322L424.568 56.036Z" fill="white"/>
<path d="M424.59 56.925L381.646 15.4945L389.12 7.72497C394.16 2.47471 401.339 -0.256271 409.343 0.0189438C417.009 0.294159 424.462 3.38504 429.799 8.50828C435.135 13.6315 438.502 20.9776 439.052 28.6413C439.624 36.6226 437.147 43.9052 432.107 49.1555L424.59 56.925ZM383.424 15.4522L424.547 55.1255L431.154 48.2875C435.961 43.3124 438.29 36.3685 437.761 28.7472C437.231 21.3799 434.013 14.3513 428.888 9.43977C423.764 4.52824 416.628 1.56438 409.28 1.31034C401.656 1.03512 394.817 3.63908 390.031 8.61413L383.424 15.4522Z" fill="#FFCF2D"/>
<path d="M431.599 49.367C431.43 49.367 431.281 49.3035 431.154 49.1977L389.1 8.63516C388.845 8.38112 388.845 8.00005 389.078 7.746C389.332 7.49196 389.735 7.49196 389.968 7.72483L432.022 48.2873C432.277 48.5414 432.277 48.9224 432.044 49.1765C431.938 49.3035 431.768 49.367 431.599 49.367Z" fill="#FFCF2D"/>
<path d="M512.828 283.194C512.743 283.194 512.659 283.173 512.574 283.131C512.256 282.983 512.108 282.602 512.256 282.284L571.23 150.773L455.929 10.456V10.4348C453.748 7.47095 450.551 5.56561 446.909 5.03635C443.266 4.50709 439.645 5.45976 436.723 7.70382L432.022 11.3028C431.747 11.5145 431.345 11.4722 431.133 11.1758C430.921 10.9006 430.963 10.4983 431.26 10.2866L435.961 6.68764C439.158 4.25304 443.118 3.2157 447.099 3.7873C451.08 4.3589 454.574 6.4336 456.946 9.67267L572.713 150.583L572.543 150.943L513.4 282.813C513.294 283.046 513.061 283.194 512.828 283.194Z" fill="#3FB1B5"/>
<path d="M570.087 157.865C573.665 157.865 576.566 154.965 576.566 151.387C576.566 147.81 573.665 144.909 570.087 144.909C566.508 144.909 563.607 147.81 563.607 151.387C563.607 154.965 566.508 157.865 570.087 157.865Z" fill="white"/>
<path d="M570.087 158.501C566.169 158.501 562.972 155.304 562.972 151.388C562.972 147.471 566.169 144.274 570.087 144.274C574.004 144.274 577.202 147.471 577.202 151.388C577.202 155.304 574.004 158.501 570.087 158.501ZM570.087 145.545C566.868 145.545 564.242 148.17 564.242 151.388C564.242 154.606 566.868 157.231 570.087 157.231C573.305 157.231 575.931 154.606 575.931 151.388C575.931 148.17 573.305 145.545 570.087 145.545Z" fill="#FFCF2D"/>
<path d="M496.396 267.824H527.969C537.053 267.824 544.401 275.192 544.401 284.252V284.718H479.942V284.252C479.964 275.192 487.311 267.824 496.396 267.824Z" fill="white"/>
<path d="M545.036 285.354H479.307V284.253C479.328 274.853 486.994 267.189 496.396 267.189H527.969C537.371 267.189 545.036 274.853 545.036 284.253V285.354ZM480.578 284.083H543.766C543.681 275.446 536.629 268.46 527.969 268.46H496.396C487.756 268.46 480.684 275.446 480.578 284.083Z" fill="#FFCF2D"/>
<path d="M343.444 236.64H143.568C136.051 236.64 129.974 230.564 129.974 223.049V83.2818C129.974 75.7663 136.051 69.6904 143.568 69.6904H343.444C350.962 69.6904 357.039 75.7663 357.039 83.2818V223.028C357.06 230.543 350.962 236.64 343.444 236.64Z" fill="white"/>
<path d="M343.444 237.276H143.568C135.712 237.276 129.338 230.903 129.338 223.049V83.2822C129.338 75.428 135.712 69.0557 143.568 69.0557H343.444C351.301 69.0557 357.674 75.428 357.674 83.2822V223.028C357.696 226.818 356.213 230.395 353.524 233.084C350.835 235.794 347.256 237.276 343.444 237.276ZM143.568 70.3259C136.432 70.3259 130.609 76.1478 130.609 83.2822V223.049C130.609 230.184 136.432 236.005 143.568 236.005H343.444C346.917 236.005 350.178 234.651 352.635 232.195C355.07 229.739 356.425 226.479 356.404 223.028V83.2822C356.404 76.1478 350.581 70.3259 343.444 70.3259H143.568Z" fill="#3FB1B5"/>
<path d="M343.572 223.642H145.623C142.679 223.642 140.308 221.249 140.308 218.328V84.6155C140.308 81.6728 142.7 79.3018 145.623 79.3018H343.572C346.515 79.3018 348.887 81.694 348.887 84.6155V218.307C348.908 221.249 346.515 223.642 343.572 223.642Z" fill="#66B0F0"/>
<path d="M343.572 224.277H145.623C142.34 224.277 139.672 221.61 139.672 218.328V84.6159C139.672 81.3345 142.34 78.667 145.623 78.667H343.572C346.854 78.667 349.522 81.3345 349.522 84.6159V218.307C349.543 219.895 348.929 221.398 347.807 222.52C346.663 223.642 345.181 224.277 343.572 224.277ZM145.623 79.9372C143.039 79.9372 140.943 82.0331 140.943 84.6159V218.328C140.943 220.911 143.039 223.007 145.623 223.007H343.572C344.821 223.007 346.007 222.52 346.896 221.631C347.786 220.742 348.252 219.577 348.252 218.328V84.6159C348.252 82.0331 346.155 79.9372 343.572 79.9372H145.623Z" fill="#66B0F0"/>
<path d="M152.716 92.4283H149.582C148.206 92.4283 147.083 91.3062 147.083 89.9302V86.7969C147.083 85.4209 148.206 84.2988 149.582 84.2988H152.716C154.093 84.2988 155.215 85.4209 155.215 86.7969V89.9302C155.194 91.3274 154.093 92.4283 152.716 92.4283ZM149.582 85.5691C148.905 85.5691 148.354 86.1195 148.354 86.7969V89.9302C148.354 90.6076 148.905 91.1581 149.582 91.1581H152.716C153.394 91.1581 153.923 90.6076 153.944 89.909V86.7969C153.944 86.1195 153.394 85.5691 152.716 85.5691H149.582Z" fill="white"/>
<path d="M166.967 92.4283H163.833C162.457 92.4283 161.334 91.3062 161.334 89.9302V86.7969C161.334 85.4209 162.457 84.2988 163.833 84.2988H166.967C168.344 84.2988 169.466 85.4209 169.466 86.7969V89.9302C169.466 91.3062 168.344 92.4283 166.967 92.4283ZM163.833 85.5691C163.156 85.5691 162.605 86.1195 162.605 86.7969V89.9302C162.605 90.6076 163.156 91.1581 163.833 91.1581H166.967C167.645 91.1581 168.195 90.6076 168.195 89.9302V86.7969C168.195 86.1195 167.645 85.5691 166.967 85.5691H163.833Z" fill="white"/>
<path d="M181.219 92.4283H178.085C176.708 92.4283 175.586 91.3062 175.586 89.9302V86.7969C175.586 85.4209 176.708 84.2988 178.085 84.2988H181.219C182.595 84.2988 183.717 85.4209 183.717 86.7969V89.9302C183.717 91.3062 182.595 92.4283 181.219 92.4283ZM178.085 85.5691C177.407 85.5691 176.856 86.1195 176.856 86.7969V89.9302C176.856 90.6076 177.407 91.1581 178.085 91.1581H181.219C181.917 91.1581 182.447 90.6288 182.447 89.9302V86.7969C182.447 86.1195 181.896 85.5691 181.219 85.5691H178.085Z" fill="white"/>
<path d="M285.699 284.295H208.112L223.337 236.641H270.453L285.699 284.295Z" fill="white"/>
<path d="M286.567 284.931H207.243L222.871 236.006H270.918L286.567 284.931ZM208.98 283.66H284.83L269.986 237.276H223.802L208.98 283.66Z" fill="#3FB1B5"/>
<path d="M214.21 265.221L223.337 236.641H270.452L214.21 265.221Z" fill="#3FB1B5"/>
<path d="M332.052 123.781H294.338C290.463 123.781 287.308 120.627 287.308 116.752V92.4065C287.308 88.5323 290.463 85.3779 294.338 85.3779H332.052C335.927 85.3779 339.082 88.5323 339.082 92.4065V116.752C339.082 120.627 335.927 123.781 332.052 123.781ZM294.338 86.6482C291.162 86.6482 288.579 89.2309 288.579 92.4065V116.752C288.579 119.928 291.162 122.511 294.338 122.511H332.052C335.228 122.511 337.812 119.928 337.812 116.752V92.4065C337.812 89.2309 335.228 86.6482 332.052 86.6482H294.338Z" fill="white"/>
<path d="M327.499 95.3278H298.722C298.362 95.3278 298.086 95.0526 298.086 94.6927C298.086 94.3328 298.362 94.0576 298.722 94.0576H327.499C327.859 94.0576 328.134 94.3328 328.134 94.6927C328.134 95.0526 327.859 95.3278 327.499 95.3278Z" fill="white"/>
<path d="M327.499 101.891H298.722C298.362 101.891 298.086 101.616 298.086 101.256C298.086 100.896 298.362 100.621 298.722 100.621H327.499C327.859 100.621 328.134 100.896 328.134 101.256C328.134 101.616 327.859 101.891 327.499 101.891Z" fill="white"/>
<path d="M327.499 108.454H298.722C298.362 108.454 298.086 108.179 298.086 107.819C298.086 107.459 298.362 107.184 298.722 107.184H327.499C327.859 107.184 328.134 107.459 328.134 107.819C328.134 108.179 327.859 108.454 327.499 108.454Z" fill="white"/>
<path d="M327.499 115.016H298.722C298.362 115.016 298.086 114.741 298.086 114.381C298.086 114.021 298.362 113.746 298.722 113.746H327.499C327.859 113.746 328.134 114.021 328.134 114.381C328.134 114.741 327.859 115.016 327.499 115.016Z" fill="white"/>
<path d="M342.47 223.643H192.569L183.781 236.239C173.849 250.466 152.864 250.677 142.658 236.641L89.126 163.032C91.3706 165.826 101.641 162.714 111.424 156.279C121.355 149.737 127.771 141.502 125.76 138.453L162.88 185.748L174.252 165.678C177.365 160.364 182.531 156.554 188.545 155.157L227.233 146.964H260.584L297.345 155.072C303.74 156.533 309.161 160.703 312.232 166.483L342.47 223.643Z" fill="white"/>
<path d="M163.071 247.671C154.707 247.671 147.083 243.797 142.149 237.001L88.6177 163.392L89.6341 162.63C91.434 164.853 100.984 162.397 111.085 155.749C115.786 152.658 119.873 149.081 122.583 145.651C125.04 142.56 126.035 139.998 125.23 138.792L126.268 138.051L162.796 184.605L173.701 165.361C176.899 159.899 182.256 155.961 188.397 154.543L227.169 146.328H260.648L260.711 146.35L297.472 154.458C304.037 155.961 309.627 160.237 312.782 166.186L343.508 224.278H192.886L184.289 236.599C179.44 243.543 171.795 247.586 163.304 247.671C163.24 247.671 163.156 247.671 163.071 247.671ZM91.074 164.62L143.187 236.26C147.93 242.781 155.257 246.486 163.325 246.401C171.393 246.316 178.656 242.484 183.272 235.879L192.251 223.008H341.433L311.681 166.779C308.695 161.148 303.422 157.104 297.218 155.686L260.521 147.599H227.296L188.672 155.77C182.87 157.125 177.809 160.851 174.802 165.996L162.965 186.891L126.67 140.655C126.374 142.243 125.336 144.233 123.557 146.455C120.762 149.97 116.569 153.653 111.763 156.808C105.05 161.211 96.982 164.683 92.1752 164.683C91.794 164.683 91.4128 164.662 91.074 164.62Z" fill="#3FB1B5"/>
<path d="M301.327 223.41C301.094 223.41 300.882 223.283 300.755 223.072L290.104 202.049C289.955 201.732 290.061 201.351 290.379 201.203C290.696 201.054 291.078 201.16 291.226 201.478L301.877 222.5C302.025 222.818 301.919 223.199 301.602 223.347C301.517 223.389 301.432 223.41 301.327 223.41Z" fill="#3FB1B5"/>
<path d="M191.722 225.379C191.616 225.379 191.531 225.358 191.425 225.315C191.108 225.167 190.981 224.765 191.15 224.469L201.695 203.658C201.844 203.341 202.246 203.214 202.542 203.383C202.86 203.531 202.987 203.933 202.818 204.23L192.272 225.04C192.166 225.252 191.955 225.379 191.722 225.379Z" fill="#3FB1B5"/>
<path d="M172.6 198.916C172.409 198.916 172.219 198.831 172.092 198.662L147.93 167.774C147.719 167.499 147.761 167.097 148.036 166.885C148.311 166.673 148.714 166.716 148.926 166.991L173.087 197.878C173.299 198.153 173.256 198.556 172.981 198.767C172.875 198.873 172.727 198.916 172.6 198.916Z" fill="#3FB1B5"/>
<path d="M256.879 168.854L247.583 157.528C247.35 157.253 247.392 156.851 247.668 156.639C247.943 156.406 248.345 156.449 248.557 156.724L257.048 167.034L276.466 150.563C276.742 150.33 277.144 150.373 277.356 150.627C277.589 150.902 277.546 151.304 277.292 151.516L256.879 168.854Z" fill="#3FB1B5"/>
<path d="M232.739 169.257L210.356 151.537C210.081 151.325 210.038 150.923 210.25 150.648C210.462 150.373 210.864 150.33 211.139 150.542L232.506 167.457L240.743 156.936C240.955 156.66 241.357 156.618 241.632 156.83C241.908 157.041 241.95 157.444 241.738 157.719L232.739 169.257Z" fill="#3FB1B5"/>
<path d="M99.3114 174.464C97.2997 174.464 96.2409 173.85 95.7116 173.172C95.4998 172.897 95.5422 172.495 95.8174 172.283C96.0927 172.071 96.495 172.114 96.7068 172.389C97.5962 173.511 100.497 173.447 104.457 172.262C108.671 170.992 113.753 168.493 118.369 165.424C123.092 162.291 127.2 158.67 129.931 155.198C132.409 152.065 133.404 149.482 132.599 148.255C132.409 147.958 132.494 147.577 132.79 147.365C133.086 147.175 133.468 147.26 133.679 147.556C134.823 149.313 133.849 152.298 130.948 155.982C128.131 159.538 123.917 163.264 119.089 166.461C114.304 169.637 109.243 172.135 104.838 173.469C102.445 174.188 100.645 174.464 99.3114 174.464Z" fill="#3FB1B5"/>
<path d="M126.48 153.907C124.807 153.907 123.452 152.552 123.452 150.88C123.452 149.207 124.807 147.853 126.48 147.853C128.153 147.853 129.508 149.207 129.508 150.88C129.508 152.552 128.153 153.907 126.48 153.907ZM126.48 149.123C125.506 149.123 124.722 149.906 124.722 150.88C124.722 151.854 125.506 152.637 126.48 152.637C127.454 152.637 128.237 151.854 128.237 150.88C128.237 149.906 127.454 149.123 126.48 149.123Z" fill="#3FB1B5"/>
<path d="M244.639 168.939C242.966 168.939 241.611 167.584 241.611 165.911C241.611 164.239 242.966 162.884 244.639 162.884C246.312 162.884 247.667 164.239 247.667 165.911C247.667 167.584 246.312 168.939 244.639 168.939ZM244.639 164.154C243.665 164.154 242.881 164.937 242.881 165.911C242.881 166.885 243.665 167.668 244.639 167.668C245.613 167.668 246.396 166.885 246.396 165.911C246.396 164.937 245.613 164.154 244.639 164.154Z" fill="#3FB1B5"/>
<path d="M244.639 188.203C242.966 188.203 241.611 186.848 241.611 185.176C241.611 183.503 242.966 182.148 244.639 182.148C246.312 182.148 247.667 183.503 247.667 185.176C247.667 186.848 246.312 188.203 244.639 188.203ZM244.639 183.419C243.665 183.419 242.881 184.202 242.881 185.176C242.881 186.15 243.665 186.933 244.639 186.933C245.613 186.933 246.396 186.15 246.396 185.176C246.396 184.202 245.613 183.419 244.639 183.419Z" fill="#3FB1B5"/>
<path d="M183.019 237.255L192.569 223.643V237.255H183.019Z" fill="#3FB1B5"/>
<path d="M111.191 155.643C101.407 162.079 91.1373 165.191 88.8927 162.397C88.8504 162.354 88.8292 162.312 88.7868 162.249C88.321 161.55 88.3633 160.597 88.7868 159.433C90.2479 155.601 96.283 149.673 103.949 144.635C110.047 140.612 116.061 137.818 120.233 136.95C122.647 136.463 124.446 136.611 125.315 137.543L125.526 137.797C127.517 140.845 121.122 149.102 111.191 155.643Z" fill="#FE5244"/>
<path d="M111.191 155.643C105.622 159.305 99.883 161.909 95.5632 162.925L76.2299 135.658C73.5406 131.847 74.43 126.576 78.2628 123.887L95.6691 111.651L85.8013 94.8626C84.3613 92.428 85.1872 89.2736 87.6435 87.8552C88.4482 87.3894 89.3164 87.1777 90.1846 87.1777C91.8575 87.1777 93.5092 88.0034 94.4832 89.5277L125.336 137.5L125.548 137.839C127.517 140.845 121.122 149.101 111.191 155.643Z" fill="#E57281"/>
<path d="M101.132 135.975C100.857 135.975 100.582 135.954 100.306 135.89C99.2476 135.679 98.337 135.043 97.7653 134.154L87.5798 118.912C87.3893 118.615 87.4739 118.234 87.7492 118.022C88.0457 117.832 88.4269 117.917 88.6386 118.192L98.824 133.434C99.2264 134.048 99.8405 134.472 100.56 134.62C101.28 134.768 102.022 134.62 102.636 134.218L105.028 132.651C106.299 131.826 106.659 130.132 105.854 128.862L95.076 112.158C94.8854 111.862 94.9701 111.481 95.2665 111.29C95.563 111.1 95.9442 111.184 96.1348 111.481L106.913 128.184C108.099 130.047 107.548 132.524 105.706 133.71L103.313 135.276C102.678 135.742 101.916 135.975 101.132 135.975Z" fill="#9A3B82"/>
<path d="M93.234 141.035C91.9211 141.035 90.6294 140.4 89.8459 139.235C89.6553 138.939 89.74 138.558 90.0365 138.346C90.3329 138.156 90.7141 138.24 90.9258 138.537C91.7517 139.786 93.4457 140.146 94.7163 139.341L96.8974 137.965C97.5115 137.563 97.9561 136.949 98.1044 136.208C98.2526 135.467 98.1256 134.726 97.7232 134.112C97.5326 133.816 97.6173 133.435 97.9138 133.223C98.2102 133.032 98.5914 133.117 98.8032 133.413C99.3961 134.324 99.6078 135.403 99.3749 136.483C99.142 137.542 98.5067 138.452 97.5961 139.045L95.4151 140.421C94.7375 140.823 93.9751 141.035 93.234 141.035Z" fill="#9A3B82"/>
<path d="M85.4839 145.778C84.2133 145.778 82.964 145.185 82.1805 144.063L76.3996 135.912C76.1878 135.616 76.2725 135.235 76.5478 135.023C76.8231 134.811 77.2254 134.896 77.4372 135.171L83.2181 143.322C84.0863 144.529 85.7168 144.846 86.945 144.063L86.9873 144.042L88.999 142.92C89.6343 142.518 90.0578 141.904 90.2272 141.184C90.3966 140.443 90.2484 139.702 89.846 139.067L79.8723 124.247C79.6818 123.951 79.7453 123.57 80.0418 123.358C80.3382 123.168 80.7194 123.231 80.9311 123.528L90.9048 138.347C91.5189 139.278 91.7095 140.379 91.4766 141.438C91.2436 142.496 90.6084 143.407 89.6766 143.978L89.6554 143.999L87.6438 145.121C86.945 145.587 86.2038 145.778 85.4839 145.778Z" fill="#9A3B82"/>
<path d="M118.136 126.322L113.075 118.468C111.402 115.864 107.908 115.144 105.346 116.88L92.7891 125.39C92.7891 125.39 96.4313 131.932 105.283 126.745L108.247 131.466C102.191 135.298 100.455 143.364 104.393 149.355L118.136 126.322Z" fill="#E57281"/>
<path d="M104.393 149.99C104.181 149.99 103.991 149.884 103.864 149.693C101.873 146.645 101.174 143.004 101.958 139.447C102.678 136.102 104.605 133.223 107.379 131.275L105.071 127.592C102.021 129.264 99.2475 129.751 96.7911 129.095C93.6783 128.248 92.2807 125.792 92.2172 125.707L91.9419 125.199L104.308 116.562C105.706 115.63 107.358 115.292 108.988 115.63C110.619 115.969 112.016 116.922 112.927 118.34L117.988 126.194C118.178 126.491 118.094 126.872 117.797 127.062C117.501 127.253 117.12 127.168 116.929 126.872L111.868 119.018C111.148 117.896 110.047 117.133 108.734 116.879C107.442 116.604 106.108 116.879 105.028 117.62L93.6571 125.559C94.1653 126.216 95.3088 127.401 97.1299 127.888C99.3745 128.502 102 127.93 104.944 126.216L105.473 125.898L109.094 131.677L108.565 132.016C105.791 133.773 103.864 136.526 103.165 139.743C102.466 142.961 103.08 146.264 104.901 149.016C105.092 149.312 105.007 149.693 104.711 149.905C104.626 149.948 104.52 149.99 104.393 149.99Z" fill="#9A3B82"/>
<path d="M111.191 155.644C105.622 159.306 99.883 161.91 95.5632 162.926L90.7563 156.152C93.4456 152.637 98.2525 148.403 103.949 144.656C110.047 140.634 116.061 137.839 120.233 136.971C122.647 136.484 124.447 136.633 125.315 137.564L125.527 137.818C125.548 137.861 125.569 137.882 125.59 137.924C125.611 137.945 125.611 137.966 125.632 138.009C125.654 138.051 125.675 138.072 125.696 138.115C127.136 141.354 120.804 149.293 111.191 155.644Z" fill="#9A3B82"/>
<path d="M260.563 128.334V146.943C260.563 152.341 253.067 156.702 243.856 156.702C234.623 156.702 227.148 152.341 227.148 146.943V128.334H260.563Z" fill="#E57281"/>
<path d="M232.039 153.844C229.011 152.087 227.126 149.631 227.126 146.943V128.334H260.563V133.5C260.563 138.856 257.302 143.661 252.347 145.673L232.039 153.844Z" fill="#9A3B82"/>
<path d="M269.88 127.233V127.55C269.88 130.768 267.275 133.372 264.057 133.372H260.224C258.932 138.58 254.231 142.454 248.598 142.454H239.112C233.5 142.454 228.778 138.601 227.508 133.372H223.675C220.456 133.372 217.852 130.768 217.852 127.55V127.233C217.852 124.015 220.456 121.411 223.675 121.411H227.148V116.817C227.148 111.905 230.769 107.841 235.491 107.163C236.528 108.899 239.662 113.048 246.057 112.816C249.064 112.71 251.86 112.138 254.168 111.461C256.942 110.656 259.716 112.35 260.414 114.996C260.52 115.589 260.584 116.182 260.584 116.796V121.39H264.057C267.254 121.39 269.88 124.015 269.88 127.233Z" fill="#E57281"/>
<path d="M263.231 121.39H260.562V116.288C260.562 115.843 260.499 115.398 260.393 114.996C259.694 112.35 256.92 110.656 254.146 111.461C251.838 112.138 249.064 112.71 246.036 112.816C239.641 113.049 236.507 108.899 235.469 107.163C230.747 107.841 227.126 111.905 227.126 116.817V121.411H223.802C223.802 121.411 219.99 107.629 222.849 103.734C225.665 99.9017 229.053 101.574 229.053 101.574C229.053 101.574 227.02 90.0998 238.37 90.3115C249.699 90.5232 264.438 103.67 265.518 106.083C267.212 109.788 263.231 121.39 263.231 121.39Z" fill="#9A3B82"/>
<path d="M261.855 128.842C261.558 128.842 261.325 128.609 261.325 128.312C261.325 125.772 263.4 123.697 265.941 123.697C266.238 123.697 266.471 123.93 266.471 124.227C266.471 124.523 266.238 124.756 265.941 124.756C263.972 124.756 262.384 126.344 262.384 128.312C262.384 128.609 262.151 128.842 261.855 128.842Z" fill="#9A3B82"/>
<path d="M225.898 128.842C225.602 128.842 225.369 128.609 225.369 128.312C225.369 126.344 223.78 124.756 221.811 124.756C221.515 124.756 221.282 124.523 221.282 124.227C221.282 123.93 221.515 123.697 221.811 123.697C224.352 123.697 226.427 125.772 226.427 128.312C226.427 128.609 226.194 128.842 225.898 128.842Z" fill="#9A3B82"/>
<path d="M255.226 117.346C255.121 117.346 255.015 117.303 254.909 117.24C254.803 117.155 252.071 115.229 248.577 116.689C248.302 116.795 248.006 116.668 247.878 116.393C247.773 116.118 247.9 115.822 248.175 115.694C252.241 114.022 255.396 116.266 255.523 116.372C255.756 116.541 255.819 116.88 255.629 117.113C255.544 117.261 255.396 117.346 255.226 117.346Z" fill="#9A3B82"/>
<path d="M232.272 117.346C232.103 117.346 231.955 117.261 231.849 117.134C231.679 116.902 231.722 116.563 231.955 116.393C232.082 116.288 235.258 114.043 239.303 115.716C239.578 115.822 239.705 116.139 239.599 116.415C239.493 116.69 239.175 116.817 238.9 116.711C235.385 115.25 232.611 117.24 232.569 117.261C232.484 117.304 232.378 117.346 232.272 117.346Z" fill="#9A3B82"/>
<path d="M245.189 135.171C244.363 135.171 243.41 135.002 242.33 134.599C242.055 134.494 241.907 134.197 242.013 133.922C242.119 133.647 242.415 133.499 242.69 133.604C247.137 135.256 248.598 132.334 248.662 132.207C248.789 131.953 249.107 131.826 249.361 131.953C249.615 132.08 249.742 132.398 249.615 132.652C249.594 132.694 248.387 135.171 245.189 135.171Z" fill="#9A3B82"/>
<path d="M243.686 131.191C243.199 131.191 242.67 131.191 242.225 131.149C241.928 131.128 241.717 130.874 241.738 130.577C241.759 130.281 242.013 130.069 242.31 130.09C243.559 130.175 245.486 130.09 245.507 130.09C245.804 130.069 246.036 130.302 246.058 130.598C246.079 130.895 245.846 131.128 245.549 131.149C245.507 131.149 244.639 131.191 243.686 131.191Z" fill="#9A3B82"/>
<path d="M251.817 125.645C252.402 125.645 252.876 124.848 252.876 123.866C252.876 122.884 252.402 122.088 251.817 122.088C251.232 122.088 250.758 122.884 250.758 123.866C250.758 124.848 251.232 125.645 251.817 125.645Z" fill="#9A3B82"/>
<path d="M236.634 125.645C237.219 125.645 237.693 124.848 237.693 123.866C237.693 122.884 237.219 122.088 236.634 122.088C236.049 122.088 235.575 122.884 235.575 123.866C235.575 124.848 236.049 125.645 236.634 125.645Z" fill="#9A3B82"/>
<path d="M239.154 130.387H232.484C230.917 130.387 229.625 129.095 229.625 127.529V120.86C229.625 119.293 230.917 118.002 232.484 118.002H239.154C240.721 118.002 242.013 119.293 242.013 120.86V127.529C242.034 128.27 241.737 128.989 241.208 129.519C240.657 130.09 239.937 130.387 239.154 130.387ZM232.484 119.06C231.488 119.06 230.684 119.865 230.684 120.86V127.529C230.684 128.524 231.488 129.328 232.484 129.328H239.154C239.641 129.328 240.107 129.138 240.446 128.778C240.785 128.439 240.954 127.994 240.954 127.529V120.86C240.954 119.865 240.149 119.06 239.154 119.06H232.484Z" fill="white"/>
<path d="M255.48 130.387H248.81C247.243 130.387 245.951 129.095 245.951 127.529V120.86C245.951 119.293 247.243 118.002 248.81 118.002H255.48C257.047 118.002 258.339 119.293 258.339 120.86V127.529C258.339 129.095 257.047 130.387 255.48 130.387ZM248.81 119.06C247.815 119.06 247.01 119.865 247.01 120.86V127.529C247.01 128.524 247.815 129.328 248.81 129.328H255.48C256.475 129.328 257.28 128.524 257.28 127.529V120.86C257.28 119.865 256.475 119.06 255.48 119.06H248.81Z" fill="white"/>
<path d="M246.481 122.405H241.504V123.464H246.481V122.405Z" fill="white"/>
<path d="M257.239 216.063H234.094C231.637 216.063 229.647 214.073 229.647 211.617V199.317C229.647 196.861 231.637 194.871 234.094 194.871H257.239C259.695 194.871 261.686 196.861 261.686 199.317V211.617C261.686 214.073 259.695 216.063 257.239 216.063ZM234.094 196.141C232.336 196.141 230.918 197.56 230.918 199.317V211.617C230.918 213.374 232.336 214.792 234.094 214.792H257.239C258.996 214.792 260.415 213.374 260.415 211.617V199.317C260.415 197.56 258.996 196.141 257.239 196.141H234.094Z" fill="#66B0F0"/>
<path d="M246.248 210.474H238.413C237.164 210.474 236.147 209.457 236.147 208.208V202.725C236.147 201.476 237.164 200.46 238.413 200.46H246.248C247.498 200.46 248.514 201.476 248.514 202.725V208.208C248.514 209.457 247.498 210.474 246.248 210.474Z" fill="#66B0F0"/>
<path d="M253.872 210.325L251.458 208.716C250.801 208.272 250.399 207.51 250.399 206.684V204.271C250.399 203.445 250.801 202.683 251.458 202.238L253.872 200.629C254.443 200.248 255.185 200.672 255.185 201.391V209.584C255.206 210.283 254.443 210.706 253.872 210.325Z" fill="#66B0F0"/>
<path d="M566.783 285.354H4.63527C4.27528 285.354 4 285.079 4 284.719C4 284.359 4.27528 284.084 4.63527 284.084H566.783C567.143 284.084 567.418 284.359 567.418 284.719C567.418 285.079 567.143 285.354 566.783 285.354Z" fill="#3FB1B5"/>
<path d="M185.623 288.424V549.794H170.864V500.043C170.864 495.407 167.094 491.639 162.457 491.639H56.8121C52.1746 491.639 48.4054 495.407 48.4054 500.043V549.794H33.646V288.424H185.623Z" fill="white"/>
<path d="M186.258 550.429H170.228V500.044C170.228 495.767 166.734 492.274 162.457 492.274H56.8121C52.5346 492.274 49.0407 495.767 49.0407 500.044V550.429H33.0107V287.789H186.258V550.429ZM171.499 549.159H184.988V289.059H34.2813V549.159H47.7701V500.044C47.7701 495.069 51.8358 491.004 56.8121 491.004H162.457C167.433 491.004 171.499 495.069 171.499 500.044V549.159Z" fill="#3FB1B5"/>
<path d="M186.068 288.424V357.778L33.646 483.255L33.6672 288.424H186.068Z" fill="#D0F0E4"/>
<path d="M162.901 364.32H56.3883C51.645 364.32 47.791 360.467 47.791 355.725V308.325C47.791 303.583 51.645 299.729 56.3883 299.729H162.901C167.645 299.729 171.499 303.583 171.499 308.325V355.725C171.499 360.467 167.645 364.32 162.901 364.32ZM56.3883 301C52.3438 301 49.0615 304.281 49.0615 308.325V355.725C49.0615 359.769 52.3438 363.05 56.3883 363.05H162.901C166.946 363.05 170.228 359.769 170.228 355.725V308.325C170.228 304.281 166.946 301 162.901 301H56.3883Z" fill="#3FB1B5"/>
<path d="M136.728 399.59H84.2978L82.1167 384.58H134.569L136.728 399.59Z" fill="#FFCF2D"/>
<path d="M164.702 375.922C158.158 375.922 152.864 381.214 152.864 387.756V399.59H108.248V387.756C108.248 381.214 113.541 375.922 120.085 375.922H164.702Z" fill="white"/>
<path d="M153.5 400.226H107.612V387.756C107.612 380.876 113.203 375.287 120.085 375.287H164.702V376.557C158.518 376.557 153.5 381.575 153.5 387.756V400.226ZM108.883 398.956H152.229V387.756C152.229 382.845 155.088 378.59 159.217 376.557H120.085C113.901 376.557 108.883 381.575 108.883 387.756V398.956Z" fill="#3FB1B5"/>
<path d="M175.819 384.581H131.202C129.826 379.584 125.231 375.922 119.789 375.922H164.405C169.848 375.922 174.422 379.584 175.819 384.581Z" fill="white"/>
<path d="M176.666 385.216H130.737L130.61 384.75C129.276 379.923 124.829 376.557 119.81 376.557V375.287H164.427C169.996 375.287 174.951 379.034 176.455 384.412L176.666 385.216ZM131.668 383.946H174.951C173.363 379.564 169.128 376.557 164.406 376.557H125.273C128.259 378.018 130.631 380.664 131.668 383.946Z" fill="#3FB1B5"/>
<path d="M162.901 463.546H56.3883C51.645 463.546 47.791 459.693 47.791 454.951V407.55C47.791 402.808 51.645 398.955 56.3883 398.955H162.901C167.645 398.955 171.499 402.808 171.499 407.55V454.951C171.499 459.693 167.645 463.546 162.901 463.546ZM56.3883 400.225C52.3438 400.225 49.0615 403.507 49.0615 407.55V454.951C49.0615 458.994 52.3438 462.276 56.3883 462.276H162.901C166.946 462.276 170.228 458.994 170.228 454.951V407.55C170.228 403.507 166.946 400.225 162.901 400.225H56.3883Z" fill="#3FB1B5"/>
<path d="M131.477 331.718C131.117 331.718 130.842 331.443 130.842 331.083C130.842 327.653 128.068 324.88 124.637 324.88H94.6737C91.2433 324.88 88.4693 327.653 88.4693 331.083C88.4693 331.443 88.194 331.718 87.834 331.718C87.474 331.718 87.1987 331.443 87.1987 331.083C87.1987 326.954 90.5445 323.609 94.6737 323.609H124.637C128.766 323.609 132.112 326.954 132.112 331.083C132.112 331.443 131.837 331.718 131.477 331.718Z" fill="#3FB1B5"/>
<path d="M131.477 430.943C131.117 430.943 130.842 430.668 130.842 430.308C130.842 426.878 128.068 424.105 124.637 424.105H94.6737C91.2433 424.105 88.4693 426.878 88.4693 430.308C88.4693 430.668 88.194 430.943 87.834 430.943C87.474 430.943 87.1987 430.668 87.1987 430.308C87.1987 426.18 90.5445 422.835 94.6737 422.835H124.637C128.766 422.835 132.112 426.18 132.112 430.308C132.112 430.668 131.837 430.943 131.477 430.943Z" fill="#3FB1B5"/>
<path d="M544.4 288.424H528.667V550.365H544.4V288.424Z" fill="white"/>
<path d="M545.035 551.001H528.031V287.789H545.035V551.001ZM529.302 549.731H543.765V289.059H529.302V549.731Z" fill="#3FB1B5"/>
<path d="M605.365 551.001H277.017C276.657 551.001 276.381 550.725 276.381 550.366C276.381 550.006 276.657 549.73 277.017 549.73H605.365C605.725 549.73 606 550.006 606 550.366C606 550.725 605.725 551.001 605.365 551.001Z" fill="#3FB1B5"/>
<path d="M78.3267 248.792H68.8189C68.8189 248.792 55.2454 192.246 43.3235 190.404C31.4017 188.563 30.7876 210.326 30.7876 210.326C30.7876 210.326 30.9994 177.236 60.7934 181.767C90.6086 186.297 78.3267 248.792 78.3267 248.792Z" fill="white"/>
<path d="M78.8564 249.428H68.3322L68.2051 248.941C68.1628 248.792 64.7535 234.651 59.9467 220.488C51.9846 197.052 46.4578 191.526 43.2391 191.04C41.0369 190.701 39.0887 191.209 37.4794 192.564C31.8679 197.221 31.4444 210.22 31.4444 210.347L30.1738 210.326C30.1738 210.156 30.2162 206.282 31.4655 201.328C32.6302 196.734 35.0866 190.32 40.2322 185.916C45.4626 181.449 52.4082 179.84 60.9207 181.153C66.4264 181.979 70.8944 184.815 74.219 189.536C79.5552 197.137 81.9904 209.437 81.4187 226.14C80.9952 238.525 79.0047 248.814 78.9835 248.919L78.8564 249.428ZM69.3274 248.157H77.8188C78.2212 245.934 79.7882 236.789 80.1481 226.077C80.5293 214.793 79.6188 199.444 73.1814 190.277C70.0686 185.832 65.8758 183.185 60.7301 182.423C52.6199 181.195 45.992 182.698 41.058 186.911C39.5758 188.182 38.3052 189.642 37.2464 191.188C39.0464 189.918 41.1216 189.473 43.4509 189.833C48.6389 190.637 54.6104 200.841 61.1748 220.149C65.4735 232.83 68.671 245.532 69.3274 248.157Z" fill="#3FB1B5"/>
<path d="M74.1546 248.581C73.8158 248.581 73.5193 248.305 73.5193 247.945C72.8205 205.795 63.8844 190.912 56.5153 185.874C50.925 182.042 46.0334 183.778 45.9911 183.799C45.6523 183.926 45.2923 183.757 45.1652 183.418C45.0382 183.079 45.2076 182.719 45.5464 182.592C45.7793 182.508 51.0944 180.624 57.2353 184.815C61.9786 188.076 65.8538 194.046 68.7336 202.598C72.4394 213.607 74.4722 228.85 74.7898 247.924C74.7898 248.284 74.5146 248.581 74.1546 248.581Z" fill="#3FB1B5"/>
<path d="M104.224 247.945H59.5649V284.295H104.224V247.945Z" fill="#FE5244"/>
<path d="M113.626 266.131C110.788 267.358 107.4 267.21 104.245 265.834C101.916 264.818 99.7135 263.146 97.9348 260.859C95.4784 257.684 93.8267 253.344 93.8267 247.945C93.8267 234.862 83.4083 226.648 79.1309 243.965C78.8344 245.172 78.5591 246.484 78.3262 247.945V247.903V247.818C78.3262 247.776 78.3262 247.712 78.3474 247.649V247.564C78.4321 246.484 78.7497 243.288 79.7238 239.435C80.4437 236.577 81.5237 233.401 83.133 230.458C83.9377 228.998 84.8694 227.6 85.9706 226.351C88.8081 223.091 92.7044 220.805 98.0194 220.805C107.803 220.805 114.96 232.321 117.692 243.796C120.084 253.767 119.11 263.738 113.626 266.131Z" fill="white"/>
<path d="M109.454 267.592C107.654 267.592 105.77 267.189 103.991 266.406C101.471 265.305 99.2055 263.527 97.4267 261.241C94.6527 257.663 93.1916 253.048 93.1916 247.946C93.1916 241.975 90.5658 235.243 86.6484 234.778C83.8108 234.439 81.3121 237.847 79.7451 244.114C79.4275 245.426 79.1734 246.696 78.9405 248.051L77.6699 247.946V247.818C77.6699 247.776 77.6699 247.67 77.6911 247.564V247.501C77.7758 246.315 78.1146 243.14 79.0887 239.266C79.9569 235.836 81.1215 232.766 82.5615 230.141C83.472 228.511 84.4249 227.114 85.4837 225.928C88.8083 222.096 93.0222 220.17 98.0196 220.17C108.184 220.17 115.532 231.962 118.306 243.648C119.534 248.792 119.873 253.852 119.238 257.896C118.539 262.447 116.675 265.475 113.88 266.703C112.525 267.295 111.021 267.592 109.454 267.592ZM86.2672 233.486C86.4578 233.486 86.6272 233.507 86.7966 233.528C91.0317 234.037 94.4621 240.515 94.4621 247.967C94.4621 252.794 95.8385 257.133 98.4431 260.5C100.095 262.617 102.191 264.268 104.499 265.284C107.527 266.597 110.767 266.703 113.372 265.58C118.115 263.506 119.619 254.635 117.078 243.987C115.659 237.995 113.139 232.47 110.005 228.426C106.469 223.875 102.339 221.482 98.0196 221.482C93.4245 221.482 89.5282 223.282 86.4578 226.817C85.4625 227.961 84.552 229.252 83.705 230.819C82.6462 232.766 81.7356 234.947 80.9945 237.36C81.3545 236.768 81.7145 236.238 82.0956 235.773C83.5991 233.931 85.1237 233.486 86.2672 233.486Z" fill="#3FB1B5"/>
<path d="M111.36 267.168C111.043 267.168 110.767 266.935 110.725 266.597C107.633 237.572 100.582 228.596 95.2245 226.182C90.4388 224.023 86.3943 226.839 86.3519 226.86C86.0766 227.072 85.6743 226.987 85.4625 226.712C85.2508 226.436 85.3355 226.034 85.6108 225.823C85.8013 225.696 90.2906 222.562 95.7327 225.018C99.3325 226.648 102.467 230.332 105.029 236.005C108.247 243.098 110.577 253.344 111.974 266.449C112.017 266.787 111.763 267.105 111.403 267.147C111.403 267.168 111.381 267.168 111.36 267.168Z" fill="#3FB1B5"/>
<path d="M30.1518 210.325C30.1518 213.819 29.7495 227.177 42.4972 227.791C55.2449 228.405 56.5154 209.161 56.5154 209.161C56.5154 209.161 50.2474 192.14 43.323 190.404C31.6129 187.461 30.1518 210.325 30.1518 210.325Z" fill="#3FB1B5"/>
<path d="M93.8267 247.945H78.3262C81.9048 225.526 93.8267 233.952 93.8267 247.945Z" fill="#3FB1B5"/>
<path opacity="0.4" d="M357.06 83.2818V223.028C357.06 230.543 350.962 236.619 343.466 236.619H183.484C173.447 250.443 152.758 250.507 142.637 236.619L142.615 236.598C138.592 236.323 135.035 234.269 132.748 231.242L136.432 228.066L230.452 146.941L319.982 69.6904H343.466C350.962 69.6904 357.06 75.7875 357.06 83.2818Z" fill="white"/>
<path opacity="0.4" d="M113.626 266.766C110.81 268.036 107.4 267.845 104.245 266.469V284.295H71.2749L97.9561 261.283L104.266 255.842L109.073 251.692L118.369 243.796C121.08 255.355 119.576 264.035 113.626 266.766Z" fill="white"/>
<path d="M394.392 360.826V478.661H367.16L349.817 430.244L324.979 360.826H394.392Z" fill="#A0505A"/>
<path d="M324.979 360.826H394.392V398.658L333.237 383.881L324.979 360.826Z" fill="#73325A"/>
<path d="M395.027 479.296H366.716L348.653 428.868L350.135 429.673C350.177 429.694 353.693 431.578 360.85 432.509C367.457 433.377 378.637 433.568 394.244 429.609L395.027 429.419V479.296ZM367.605 478.026H393.757V431.049C378.299 434.881 367.203 434.648 360.575 433.78C355.768 433.145 352.591 432.107 350.919 431.43L367.605 478.026Z" fill="white"/>
<path d="M363.984 442.248C361.93 442.248 360.257 440.575 360.257 438.522C360.257 436.468 361.93 434.796 363.984 434.796C366.038 434.796 367.711 436.468 367.711 438.522C367.711 440.575 366.038 442.248 363.984 442.248ZM363.984 436.066C362.628 436.066 361.527 437.167 361.527 438.522C361.527 439.877 362.628 440.978 363.984 440.978C365.339 440.978 366.44 439.877 366.44 438.522C366.44 437.167 365.339 436.066 363.984 436.066Z" fill="white"/>
<path d="M378.723 452.22C376.669 452.22 374.996 450.547 374.996 448.494C374.996 446.44 376.669 444.768 378.723 444.768C380.777 444.768 382.449 446.44 382.449 448.494C382.449 450.547 380.777 452.22 378.723 452.22ZM378.723 446.038C377.367 446.038 376.266 447.139 376.266 448.494C376.266 449.849 377.367 450.949 378.723 450.949C380.078 450.949 381.179 449.849 381.179 448.494C381.179 447.139 380.078 446.038 378.723 446.038Z" fill="white"/>
<path d="M389.691 441.147C387.637 441.147 385.964 439.475 385.964 437.421C385.964 435.368 387.637 433.695 389.691 433.695C391.745 433.695 393.418 435.368 393.418 437.421C393.418 439.475 391.745 441.147 389.691 441.147ZM389.691 434.966C388.336 434.966 387.234 436.066 387.234 437.421C387.234 438.776 388.336 439.877 389.691 439.877C391.046 439.877 392.147 438.776 392.147 437.421C392.147 436.066 391.046 434.966 389.691 434.966Z" fill="white"/>
<path d="M385.35 463.82C383.296 463.82 381.623 462.148 381.623 460.094C381.623 458.041 383.296 456.368 385.35 456.368C387.404 456.368 389.077 458.041 389.077 460.094C389.077 462.148 387.404 463.82 385.35 463.82ZM385.35 457.638C383.995 457.638 382.894 458.739 382.894 460.094C382.894 461.449 383.995 462.55 385.35 462.55C386.705 462.55 387.806 461.449 387.806 460.094C387.806 458.739 386.705 457.638 385.35 457.638Z" fill="white"/>
<path d="M367.076 458.189C365.022 458.189 363.349 456.517 363.349 454.463C363.349 452.41 365.022 450.737 367.076 450.737C369.13 450.737 370.803 452.41 370.803 454.463C370.803 456.517 369.13 458.189 367.076 458.189ZM367.076 452.008C365.721 452.008 364.62 453.108 364.62 454.463C364.62 455.818 365.721 456.919 367.076 456.919C368.431 456.919 369.532 455.818 369.532 454.463C369.532 453.108 368.431 452.008 367.076 452.008Z" fill="white"/>
<path d="M372.116 475.126C370.062 475.126 368.389 473.453 368.389 471.4C368.389 469.346 370.062 467.674 372.116 467.674C374.17 467.674 375.842 469.346 375.842 471.4C375.842 473.453 374.17 475.126 372.116 475.126ZM372.116 468.944C370.76 468.944 369.659 470.045 369.659 471.4C369.659 472.755 370.76 473.856 372.116 473.856C373.471 473.856 374.572 472.755 374.572 471.4C374.572 470.045 373.471 468.944 372.116 468.944Z" fill="white"/>
<path d="M407.267 500.636L388.59 539.399C385.943 545.644 379.823 549.709 373.026 549.709H349.203C343.105 549.709 339.399 543.527 341.728 537.896L365.678 480.143C367.012 476.629 369.363 473.707 372.306 471.653C375.271 469.6 378.828 468.436 382.576 468.436C387.785 468.436 392.952 471.971 396.383 475.888L404.683 484.843C408.516 489.204 409.511 495.322 407.267 500.636Z" fill="#66B0F0"/>
<path d="M407.267 500.635L388.59 539.398C385.943 545.644 379.823 549.708 373.026 549.708H347.7C345.35 549.708 344.015 548.248 343.232 546.236H348.865C355.662 546.236 361.782 542.172 364.429 535.926L385.964 491.024C387.976 486.832 392.232 484.144 396.891 484.144C402.968 484.144 407.584 488.589 408.431 494.221C408.516 496.38 408.135 498.561 407.267 500.635Z" fill="white"/>
<path d="M373.026 550.344H347.7C345.349 550.344 343.634 549.031 342.639 546.47C342.554 546.279 342.596 546.046 342.702 545.877C342.829 545.707 343.02 545.602 343.232 545.602H348.864C355.408 545.602 361.295 541.706 363.836 535.673C363.836 535.673 363.836 535.652 363.857 535.652L385.392 490.749C387.51 486.346 392.02 483.509 396.891 483.509C403.01 483.509 408.135 487.976 409.067 494.136C409.067 494.157 409.067 494.179 409.067 494.2C409.151 496.486 408.749 498.752 407.86 500.89C407.86 500.89 407.86 500.911 407.838 500.911L389.162 539.653C386.409 546.152 380.077 550.344 373.026 550.344ZM344.227 546.872C345.032 548.375 346.154 549.074 347.7 549.074H373.026C379.569 549.074 385.456 545.178 387.997 539.145C387.997 539.145 387.997 539.123 388.018 539.123L406.695 500.382C407.5 498.434 407.881 496.38 407.796 494.285C406.949 488.78 402.375 484.779 396.891 484.779C392.507 484.779 388.442 487.341 386.536 491.3L365 536.181C362.247 542.68 355.916 546.872 348.864 546.872H344.227Z" fill="#66B0F0"/>
<path d="M402.968 482.98C400.723 481.752 398.013 480.863 395.641 480.863C391.089 480.863 386.875 483.509 384.905 487.616L362.607 534.107C359.77 540.818 353.206 545.158 345.9 545.158H341.792C341.58 544.755 341.432 544.332 341.284 543.887H345.9C352.697 543.887 358.796 539.844 361.443 533.599L361.464 533.577L383.783 487.066C385.964 482.514 390.623 479.593 395.663 479.593C397.272 479.593 399.199 480.122 400.851 480.694L402.968 482.98Z" fill="white"/>
<path d="M324.979 360.826L319.664 430.244L317.292 461.343C317.292 461.343 301.813 478.576 284.194 467.948L276.042 430.265L257.386 344.038C252.346 320.729 268.27 298.056 291.924 294.901L324.979 360.826Z" fill="#A0505A"/>
<path d="M296.116 472.881C292.326 472.881 288.154 471.928 283.877 469.345L283.644 469.197L275.216 429.354L276.232 429.672C296.285 435.684 319.282 429.714 319.515 429.651L320.383 429.418L317.927 462.465L317.779 462.634C317.609 462.804 313.755 467.059 307.636 470.065C304.565 471.547 300.584 472.881 296.116 472.881ZM284.766 468.393C291.796 472.542 299.292 472.711 307.043 468.922C312.294 466.339 315.936 462.698 316.677 461.915L318.964 431.069C317.037 431.514 312.04 432.594 305.581 433.186C298.149 433.885 287.244 434.054 276.868 431.175L284.766 468.393Z" fill="white"/>
<path d="M295.332 450.08C293.278 450.08 291.605 448.407 291.605 446.354C291.605 444.3 293.278 442.628 295.332 442.628C297.386 442.628 299.059 444.3 299.059 446.354C299.059 448.407 297.386 450.08 295.332 450.08ZM295.332 443.898C293.977 443.898 292.876 444.999 292.876 446.354C292.876 447.709 293.977 448.81 295.332 448.81C296.688 448.81 297.789 447.709 297.789 446.354C297.789 444.999 296.688 443.898 295.332 443.898Z" fill="white"/>
<path d="M314.983 445.339C312.929 445.339 311.256 443.666 311.256 441.613C311.256 439.559 312.929 437.887 314.983 437.887C317.037 437.887 318.71 439.559 318.71 441.613C318.71 443.666 317.037 445.339 314.983 445.339ZM314.983 439.157C313.628 439.157 312.527 440.258 312.527 441.613C312.527 442.968 313.628 444.068 314.983 444.068C316.339 444.068 317.44 442.968 317.44 441.613C317.44 440.258 316.339 439.157 314.983 439.157Z" fill="white"/>
<path d="M283.474 441.146C281.42 441.146 279.747 439.474 279.747 437.42C279.747 435.367 281.42 433.694 283.474 433.694C285.528 433.694 287.201 435.367 287.201 437.42C287.201 439.474 285.528 441.146 283.474 441.146ZM283.474 434.965C282.119 434.965 281.018 436.065 281.018 437.42C281.018 438.775 282.119 439.876 283.474 439.876C284.829 439.876 285.93 438.775 285.93 437.42C285.93 436.065 284.829 434.965 283.474 434.965Z" fill="white"/>
<path d="M292.241 466.911C290.187 466.911 288.514 465.238 288.514 463.185C288.514 461.131 290.187 459.459 292.241 459.459C294.295 459.459 295.968 461.131 295.968 463.185C295.968 465.238 294.295 466.911 292.241 466.911ZM292.241 460.729C290.886 460.729 289.785 461.83 289.785 463.185C289.785 464.54 290.886 465.641 292.241 465.641C293.596 465.641 294.697 464.54 294.697 463.185C294.697 461.83 293.596 460.729 292.241 460.729Z" fill="white"/>
<path d="M306.661 460.729C304.607 460.729 302.935 459.057 302.935 457.003C302.935 454.95 304.607 453.277 306.661 453.277C308.715 453.277 310.388 454.95 310.388 457.003C310.388 459.057 308.715 460.729 306.661 460.729ZM306.661 454.548C305.306 454.548 304.205 455.648 304.205 457.003C304.205 458.358 305.306 459.459 306.661 459.459C308.017 459.459 309.118 458.358 309.118 457.003C309.118 455.648 308.017 454.548 306.661 454.548Z" fill="white"/>
<path d="M337.705 468.753L317.292 550.365H310.855C310.558 550.365 310.283 550.344 309.986 550.323C305.116 549.878 301.008 545.771 299.97 540.923L284.173 467.906C301.791 478.555 317.292 461.322 317.292 461.322L337.705 468.753Z" fill="#66B0F0"/>
<path d="M338.743 510.629C343.041 487.934 344.227 470.595 336.816 469.198C329.404 467.801 316.212 482.853 311.913 505.548C307.615 528.242 309.859 548.312 317.271 549.709C324.682 551.128 334.444 533.345 338.743 510.629Z" fill="white"/>
<path d="M318.118 550.429C317.8 550.429 317.461 550.408 317.143 550.344C313.29 549.625 310.6 544.417 309.563 535.694C308.567 527.29 309.181 516.535 311.278 505.442C313.268 494.963 317.313 485.203 322.67 477.963C327.583 471.336 332.919 467.822 336.921 468.584C340.775 469.304 342.681 473.665 342.787 481.922C342.872 488.654 341.749 498.075 339.357 510.756C337.663 519.69 335.1 528.094 331.945 535.059C328.832 541.94 325.423 546.767 322.098 549.032C320.743 549.942 319.409 550.429 318.118 550.429ZM335.82 469.749C332.432 469.749 327.879 473.093 323.708 478.725C318.456 485.817 314.496 495.386 312.527 505.675C310.452 516.662 309.838 527.269 310.812 535.546C311.765 543.549 314.158 548.481 317.376 549.095C318.605 549.328 319.96 548.947 321.4 547.973C327.901 543.549 334.783 528.158 338.107 510.523C340.5 497.948 341.601 488.59 341.516 481.943C341.432 474.491 339.801 470.426 336.688 469.833C336.413 469.77 336.117 469.749 335.82 469.749Z" fill="#66B0F0"/>
<path d="M308.948 505.188C306.725 516.958 306.069 528.327 307.127 537.218C307.89 543.612 309.499 548.164 311.701 550.365H310.854C310.558 550.365 310.282 550.344 309.986 550.323C307.996 547.698 306.577 543.294 305.857 537.367C304.777 528.369 305.433 516.852 307.699 504.955C309.838 493.692 314.158 483.128 319.896 475.189C323.327 470.447 326.926 467.123 330.209 465.62L332.114 466.255C324.555 468.499 313.078 483.403 308.948 505.188Z" fill="white"/>
<path d="M291.924 294.881L388.527 284.931L485.088 312.008L484.262 324.837C482.949 345.076 465.5 360.827 445.214 360.827H325.001L291.924 294.881Z" fill="#FE5244"/>
<path d="M440.957 352.572H320.744C320.384 352.572 320.108 352.296 320.108 351.936C320.108 351.577 320.384 351.301 320.744 351.301H440.957C450.147 351.301 459.782 346.453 467.406 337.964C474.626 329.919 478.946 319.863 478.946 311.077C478.946 310.718 479.222 310.442 479.582 310.442C479.942 310.442 480.217 310.718 480.217 311.077C480.217 320.181 475.77 330.554 468.358 338.832C460.481 347.554 450.507 352.572 440.957 352.572Z" fill="white"/>
<path d="M431.492 341.986H315.874C315.514 341.986 315.238 341.711 315.238 341.351C315.238 340.991 315.514 340.716 315.874 340.716H431.492C439.518 340.716 447.818 336.947 454.828 330.088C461.413 323.652 466.029 315.353 467.491 307.309C467.554 306.97 467.893 306.737 468.232 306.8C468.571 306.864 468.803 307.203 468.74 307.541C465.754 323.822 449.724 341.986 431.492 341.986Z" fill="white"/>
<path d="M421.306 331.188H309.732C309.372 331.188 309.097 330.913 309.097 330.553C309.097 330.193 309.372 329.918 309.732 329.918H421.306C436.553 329.918 449.788 316.2 454.51 303.307C454.637 302.968 454.997 302.799 455.314 302.926C455.653 303.053 455.823 303.413 455.696 303.73C453.07 310.907 448.326 317.661 442.313 322.741C435.769 328.267 428.506 331.188 421.306 331.188Z" fill="white"/>
<path d="M415.801 319.545H304.227C303.867 319.545 303.592 319.27 303.592 318.91C303.592 318.55 303.867 318.275 304.227 318.275H415.801C426.304 318.275 437.315 311.437 444.557 300.45C444.748 300.153 445.15 300.068 445.447 300.259C445.743 300.449 445.828 300.852 445.637 301.148C438.141 312.495 426.728 319.545 415.801 319.545Z" fill="white"/>
<path d="M410.507 308.96H298.933C298.573 308.96 298.298 308.684 298.298 308.324C298.298 307.965 298.573 307.689 298.933 307.689H410.507C418.596 307.689 426.749 303.963 433.462 297.21C433.716 296.956 434.118 296.956 434.351 297.21C434.605 297.464 434.605 297.866 434.351 298.099C427.405 305.107 418.935 308.96 410.507 308.96Z" fill="white"/>
<path d="M404.79 298.163H293.216C292.856 298.163 292.581 297.888 292.581 297.528C292.581 297.168 292.856 296.893 293.216 296.893H404.79C409.554 296.893 414.34 295.538 419.041 292.891C419.337 292.722 419.74 292.828 419.909 293.124C420.079 293.421 419.973 293.823 419.676 293.992C414.785 296.766 409.766 298.163 404.79 298.163Z" fill="white"/>
<path d="M324.768 361.463C324.535 361.463 324.302 361.336 324.196 361.103L291.141 295.157C290.992 294.839 291.12 294.458 291.416 294.31C291.734 294.162 292.115 294.289 292.263 294.585L325.318 360.531C325.466 360.849 325.339 361.23 325.043 361.378C324.958 361.442 324.873 361.463 324.768 361.463Z" fill="white"/>
<path d="M490.381 223.643C481.276 226.225 472.318 225.463 471.365 222.69C470.476 220.044 474.499 215.513 482.652 212.507C483.054 212.359 483.478 212.211 483.901 212.062C486.358 211.237 488.814 210.707 491.122 210.432C497.962 209.564 503.531 210.792 504.23 212.867C505.183 215.64 500.016 220.912 490.381 223.643Z" fill="white"/>
<path d="M479.539 225.865C474.923 225.865 471.429 224.827 470.751 222.901C469.608 219.514 474.626 214.793 482.419 211.913C482.821 211.765 483.245 211.617 483.668 211.469H483.69C486.082 210.664 488.56 210.114 491.037 209.818C498.047 208.928 503.976 210.156 504.823 212.676C505.119 213.501 504.971 214.517 504.42 215.576C502.642 218.963 497.2 222.393 490.55 224.277C486.718 225.335 482.843 225.865 479.539 225.865ZM495.463 210.791C494.171 210.791 492.753 210.876 491.207 211.067C488.814 211.363 486.421 211.892 484.113 212.676C483.69 212.824 483.266 212.972 482.885 213.12C479.2 214.475 476.066 216.275 474.076 218.201C472.403 219.81 471.62 221.419 471.98 222.499C472.678 224.552 480.831 225.695 490.212 223.049C495.4 221.588 501.456 218.519 503.298 214.983C503.679 214.242 503.806 213.586 503.637 213.078C503.256 211.956 500.249 210.791 495.463 210.791Z" fill="#3FB1B5"/>
<path d="M484.621 285.374H481.127L471.958 223.493V223.451L471.725 221.906C472.17 219.09 476.574 215.11 484.346 212.527C488.221 211.236 492.075 210.664 495.357 210.601L498.703 219.767L499.02 220.635L509.608 249.66C515.961 266.999 503.107 285.374 484.621 285.374Z" fill="#A0505A"/>
<path d="M498.914 220.424C496.691 221.821 493.811 223.112 490.381 224.086C482.503 226.309 474.52 225.399 471.958 223.493V223.451L471.725 221.906C472.17 219.09 476.574 215.11 484.346 212.527C488.221 211.236 492.075 210.664 495.357 210.601L498.914 220.424Z" fill="#73325A"/>
<path d="M371.205 234.46L360.088 262.109C354.603 275.764 341.347 284.719 326.609 284.719H177.173V271.043C177.173 267.74 179.206 264.776 182.298 263.612L197.65 257.79C199.048 257.261 200.509 256.985 201.991 256.985H219.419L318.054 247.035L335.079 208.061L371.205 234.46Z" fill="#A0505A"/>
<path d="M177.809 276.822C177.449 276.822 177.173 276.547 177.173 276.187C177.173 273.414 178.846 270.979 181.451 269.984L193.034 265.602C193.351 265.475 193.733 265.644 193.86 265.962C193.987 266.279 193.817 266.661 193.5 266.788L181.917 271.17C179.82 271.974 178.444 273.943 178.444 276.187C178.444 276.547 178.169 276.822 177.809 276.822Z" fill="#73325A"/>
<path d="M177.809 283.808C177.449 283.808 177.173 283.532 177.173 283.173C177.173 280.399 178.846 277.965 181.451 276.97L193.034 272.587C193.351 272.46 193.733 272.63 193.86 272.947C193.987 273.265 193.817 273.646 193.5 273.773L181.917 278.155C179.82 278.96 178.444 280.928 178.444 283.173C178.444 283.532 178.169 283.808 177.809 283.808Z" fill="#73325A"/>
<path d="M181.683 284.719C181.429 284.719 181.175 284.55 181.091 284.296C180.963 283.957 181.133 283.597 181.472 283.491L193.055 279.32C193.394 279.193 193.754 279.363 193.859 279.702C193.986 280.04 193.817 280.4 193.478 280.506L181.895 284.677C181.832 284.698 181.747 284.719 181.683 284.719Z" fill="#73325A"/>
<path d="M192.06 260.139C192.06 260.139 202.901 232.47 206.374 232.936C209.847 233.401 196.761 258.361 196.761 258.361L192.06 260.139Z" fill="#FE5244"/>
<path d="M335.079 208.082L332.581 213.777L364.577 250.931L371.205 234.46L335.079 208.082Z" fill="#73325A"/>
<path d="M471.958 223.515L485.087 312.008L388.548 284.931L371.205 234.439L326.44 201.731L342.152 183.016C356.17 166.313 376.859 156.659 398.67 156.659H429.692C456.67 156.659 481.509 171.394 494.447 195.062L504.505 212.464C504.505 212.464 501.477 208.019 485.151 212.486C470.773 216.444 471.958 223.515 471.958 223.515Z" fill="#3FB1B5"/>
<path d="M371.205 234.672C371.163 234.672 371.099 234.672 371.057 234.65C370.718 234.566 370.506 234.227 370.591 233.888L375.61 212.125C375.694 211.786 376.033 211.575 376.372 211.659C376.711 211.744 376.922 212.083 376.838 212.421L371.819 234.185C371.756 234.481 371.502 234.672 371.205 234.672Z" fill="white"/>
<path d="M482.652 291.98C482.355 291.98 482.08 291.769 482.017 291.451L465.69 189.981C465.627 189.642 465.86 189.304 466.22 189.261C466.558 189.198 466.897 189.431 466.939 189.791L483.266 291.26C483.329 291.599 483.097 291.938 482.737 291.98C482.715 291.98 482.694 291.98 482.652 291.98Z" fill="white"/>
<path d="M484.876 312.643C484.812 312.643 484.77 312.643 484.706 312.622L388.357 285.142C388.019 285.037 387.828 284.698 387.913 284.359C388.018 284.02 388.357 283.83 388.696 283.915L485.045 311.394C485.384 311.5 485.574 311.838 485.49 312.177C485.405 312.452 485.151 312.643 484.876 312.643Z" fill="white"/>
<path d="M393.735 142.517V156.744L418.85 156.532V131.424L393.735 142.517Z" fill="#A0505A"/>
<path d="M420.883 127.041V127.422C420.883 131.233 418.003 134.324 414.191 134.324H412.709C411.756 138.092 403.286 142.496 397.272 142.496H390.263C382.597 142.496 376.732 135.615 377.981 128.036L378.32 125.983L376.245 124.818C375.059 124.141 374.72 122.596 375.546 121.495L380.035 115.567L381.009 109.724C381.793 104.918 384.948 101.002 389.14 99.0752C390.792 117.684 407.224 119.886 411.565 120.14H413.979C417.791 120.14 420.883 123.231 420.883 127.041Z" fill="#A0505A"/>
<path d="M409.766 129.497C409.406 129.497 409.13 129.222 409.13 128.862C409.13 125.517 411.862 122.786 415.208 122.786C415.568 122.786 415.843 123.061 415.843 123.421C415.843 123.781 415.568 124.056 415.208 124.056C412.561 124.056 410.401 126.216 410.401 128.862C410.401 129.222 410.126 129.497 409.766 129.497Z" fill="#73325A"/>
<path d="M386.811 120.33C387.408 120.33 387.891 119.212 387.891 117.832C387.891 116.452 387.408 115.334 386.811 115.334C386.215 115.334 385.731 116.452 385.731 117.832C385.731 119.212 386.215 120.33 386.811 120.33Z" fill="#73325A"/>
<path d="M391.216 114.678C391.025 114.678 390.834 114.593 390.707 114.424C387.891 110.529 385.265 110.74 385.223 110.74C384.863 110.783 384.566 110.529 384.524 110.169C384.482 109.83 384.736 109.512 385.096 109.47C385.223 109.449 388.484 109.195 391.724 113.662C391.936 113.937 391.872 114.339 391.576 114.551C391.47 114.636 391.343 114.678 391.216 114.678Z" fill="#73325A"/>
<path d="M411.566 120.14H413.98C417.791 120.14 420.883 123.231 420.883 127.042V127.423C420.883 131.233 418.003 134.324 414.191 134.324L412.561 135.467C405.7 139.871 396.213 157.188 398.543 169.446C401.168 183.228 413.175 186.298 424.271 184.181C435.367 182.064 443.456 175.607 440.83 161.803C440.534 160.173 440.047 158.543 439.433 156.934C439.623 156.998 439.793 157.061 439.983 157.125C453.324 160.766 468.994 161.19 473.314 150.774C477.633 140.358 476.659 130.048 463.679 124.671C456.14 121.537 445.891 121.559 437.95 123.718C441.953 109.809 434.838 94.3334 421.772 92.7879C401.253 90.3533 389.479 98.8215 389.162 99.0544C389.141 101.51 390.813 118.933 411.566 120.14Z" fill="#73325A"/>
<path d="M439.983 157.781C439.687 157.781 439.411 157.57 439.369 157.273C437.124 145.524 427.511 139.045 427.405 138.982C427.235 138.876 427.129 138.664 427.129 138.453C427.129 138.241 427.235 138.05 427.405 137.923C433.969 133.287 436.807 126.597 437.908 123.041C438.014 122.702 438.374 122.511 438.691 122.617C439.03 122.723 439.221 123.083 439.115 123.4C438.014 126.999 435.219 133.605 428.845 138.431C431.238 140.231 438.628 146.54 440.618 157.019C440.682 157.358 440.449 157.697 440.11 157.76C440.068 157.781 440.025 157.781 439.983 157.781Z" fill="white"/>
<path d="M444.24 123.4H438.628C438.268 123.4 437.993 123.125 437.993 122.765V117.155C437.993 113.874 440.661 111.206 443.944 111.206H444.24C447.522 111.206 450.19 113.874 450.19 117.155V117.451C450.212 119.018 449.597 120.521 448.475 121.643C447.353 122.765 445.849 123.4 444.24 123.4ZM439.264 122.13H444.24C445.511 122.13 446.675 121.643 447.565 120.733C448.433 119.844 448.92 118.679 448.92 117.451V117.155C448.92 114.572 446.823 112.476 444.24 112.476H443.944C441.36 112.476 439.264 114.572 439.264 117.155V122.13Z" fill="#FE5244"/>
<path d="M447.374 131.995C445.108 131.995 442.927 130.894 441.635 128.862L438.035 123.146C437.845 122.85 437.929 122.447 438.226 122.278L443.943 118.679C445.468 117.726 447.289 117.409 449.047 117.811C450.804 118.213 452.308 119.272 453.282 120.796L453.621 121.325C454.595 122.85 454.891 124.67 454.489 126.427C454.087 128.185 453.028 129.688 451.503 130.662L450.974 131C449.873 131.657 448.623 131.995 447.374 131.995ZM439.454 122.998L442.715 128.185C444.325 130.725 447.734 131.487 450.317 129.878L450.847 129.54C452.096 128.756 452.943 127.55 453.261 126.11C453.578 124.67 453.324 123.21 452.541 121.961L452.202 121.431C451.418 120.182 450.211 119.335 448.771 119.018C447.331 118.7 445.87 118.954 444.621 119.738L439.454 122.998Z" fill="#FE5244"/>
<path d="M412.688 148.932C412.54 148.932 412.391 148.932 412.243 148.911C410.655 148.784 409.215 148.064 408.177 146.858L407.987 146.625C406.949 145.439 406.441 143.915 406.547 142.348C406.653 140.76 407.373 139.3 408.58 138.262L412.561 134.452C412.688 134.325 412.857 134.261 413.027 134.282C413.196 134.282 413.365 134.367 413.471 134.494L417.389 138.919C418.426 140.125 418.956 141.671 418.829 143.259C418.702 144.846 417.982 146.286 416.775 147.323L416.521 147.514C415.483 148.424 414.128 148.932 412.688 148.932ZM412.984 135.807L409.469 139.173L409.448 139.194C408.495 140.02 407.923 141.163 407.839 142.433C407.754 143.682 408.156 144.868 408.961 145.799C408.961 145.799 408.961 145.82 408.982 145.82L409.173 146.053C409.977 146.985 411.1 147.556 412.349 147.662C413.598 147.747 414.805 147.344 415.758 146.54L416.012 146.328C416.944 145.524 417.516 144.402 417.622 143.153C417.706 141.904 417.304 140.697 416.499 139.744L412.984 135.807Z" fill="#FE5244"/>
<path d="M420.798 146.604C417.834 146.604 415.102 144.635 414.255 141.65L412.455 135.151C412.37 134.812 412.561 134.473 412.9 134.367L419.401 132.568C421.137 132.081 422.958 132.314 424.525 133.182C426.092 134.071 427.236 135.51 427.723 137.246L427.892 137.86C428.379 139.596 428.146 141.417 427.278 142.984C426.389 144.55 424.949 145.693 423.212 146.18L422.598 146.35C421.984 146.54 421.391 146.604 420.798 146.604ZM415.483 141.311C416.309 144.212 419.337 145.948 422.238 145.143L422.852 144.974C424.271 144.571 425.436 143.661 426.156 142.391C426.876 141.121 427.045 139.639 426.664 138.22L426.494 137.606C426.092 136.188 425.182 135.024 423.911 134.304C422.641 133.584 421.158 133.415 419.739 133.796L413.853 135.426L415.483 141.311Z" fill="#FE5244"/>
<path d="M320.193 550.344C320.15 550.344 320.108 550.344 320.066 550.323C319.727 550.26 319.494 549.921 319.579 549.561L356.466 376.958C356.53 376.62 356.869 376.387 357.229 376.472C357.568 376.535 357.8 376.874 357.716 377.234L320.807 549.836C320.743 550.132 320.489 550.344 320.193 550.344Z" fill="#FFCF2D"/>
<path d="M488.369 550.345C488.073 550.345 487.818 550.133 487.755 549.837L450.867 377.234C450.804 376.896 451.015 376.557 451.354 376.472C451.693 376.409 452.032 376.62 452.117 376.959L489.004 549.561C489.068 549.9 488.856 550.239 488.517 550.324C488.454 550.345 488.411 550.345 488.369 550.345Z" fill="#FFCF2D"/>
<path d="M479.687 512.026H328.367C328.007 512.026 327.731 511.751 327.731 511.391C327.731 511.031 328.007 510.756 328.367 510.756H479.687C480.047 510.756 480.322 511.031 480.322 511.391C480.322 511.751 480.047 512.026 479.687 512.026Z" fill="#FFCF2D"/>
<path d="M480.512 377.106H328.027C326.1 377.106 324.533 375.54 324.533 373.613V364.319C324.533 362.393 326.1 360.826 328.027 360.826H480.512C482.439 360.826 484.006 362.393 484.006 364.319V373.613C484.006 375.54 482.439 377.106 480.512 377.106Z" fill="white"/>
<path d="M480.512 377.742H328.027C325.74 377.742 323.898 375.9 323.898 373.614V364.32C323.898 362.033 325.74 360.191 328.027 360.191H480.512C482.799 360.191 484.642 362.033 484.642 364.32V373.614C484.642 375.9 482.799 377.742 480.512 377.742ZM328.027 361.462C326.46 361.462 325.168 362.753 325.168 364.32V373.614C325.168 375.18 326.46 376.472 328.027 376.472H480.512C482.079 376.472 483.371 375.18 483.371 373.614V364.32C483.371 362.753 482.079 361.462 480.512 361.462H328.027Z" fill="#66B0F0"/>
</g>
<defs>
<filter id="filter0_d_2327_3154" x="0" y="0" width="610" height="559.001" filterUnits="userSpaceOnUse" color-interpolation-filters="sRGB">
<feFlood flood-opacity="0" result="BackgroundImageFix"/>
<feColorMatrix in="SourceAlpha" type="matrix" values="0 0 0 0 0 0 0 0 0 0 0 0 0 0 0 0 0 0 127 0" result="hardAlpha"/>
<feOffset dy="4"/>
<feGaussianBlur stdDeviation="2"/>
<feComposite in2="hardAlpha" operator="out"/>
<feColorMatrix type="matrix" values="0 0 0 0 0 0 0 0 0 0 0 0 0 0 0 0 0 0 0.25 0"/>
<feBlend mode="normal" in2="BackgroundImageFix" result="effect1_dropShadow_2327_3154"/>
<feBlend mode="normal" in="SourceGraphic" in2="effect1_dropShadow_2327_3154" result="shape"/>
</filter>
</defs>
</svg>
